<?xml version="1.0" encoding="utf-8"?>
<!-- Generator: Adobe Illustrator 23.0.4, SVG Export Plug-In . SVG Version: 6.00 Build 0)  -->
<svg version="1.1" id="logojohannalaurent" xmlns="http://www.w3.org/2000/svg" xmlns:xlink="http://www.w3.org/1999/xlink" x="0px"
	 y="0px" viewBox="0 0 566.9 566.9" style="enable-background:new 0 0 566.9 566.9;" xml:space="preserve">
<title>logojohannalaurent</title>
<title>logojohannalaurent</title>
<path d="M314.8,550.1c0.5-0.5,1-1,1.4-1.5c0.1-0.1,0.2-0.2,0.3-0.4c0.5-0.6,1-1.2,1.5-1.8c0-0.1,0.1-0.1,0.1-0.2
	c0.7-0.9,1.4-1.8,2-2.7L549,218.7l-5.6-20.3c-1.4-5.1-14.8-50.9-52.2-97.4C439.6,36.9,367.8,3,283.5,3S127.3,36.9,75.8,101
	c-37.4,46.5-50.8,92.4-52.2,97.4L18,218.7l228.7,324.9c0.6,0.9,1.3,1.8,2,2.7c0,0.1,0.1,0.1,0.1,0.2c0.5,0.6,1,1.2,1.5,1.8
	c0.1,0.1,0.2,0.2,0.3,0.4c0.5,0.5,0.9,1,1.4,1.5c0.1,0.1,0.3,0.3,0.4,0.4c0.6,0.5,1.1,1.1,1.7,1.6c0.4,0.4,0.9,0.7,1.3,1.1
	c0.2,0.1,0.3,0.3,0.5,0.4c0.5,0.4,1,0.7,1.4,1.1c0.1,0.1,0.2,0.2,0.3,0.2c0.1,0.1,0.2,0.1,0.2,0.2c0.4,0.3,0.8,0.5,1.1,0.8
	c0.3,0.2,0.6,0.4,0.9,0.6c0.5,0.3,1,0.6,1.5,0.9c0.4,0.2,0.8,0.5,1.2,0.7c0.2,0.1,0.5,0.2,0.7,0.4c0.7,0.3,1.4,0.7,2.1,1
	c0,0,0.1,0,0.1,0.1c0.8,0.3,1.5,0.6,2.3,0.9c0,0,0,0,0,0c4.1,1.5,8.4,2.4,12.7,2.6c0.1,0,0.2,0,0.2,0c0.8,0,1.6,0.1,2.4,0.1
	c0,0,0,0,0,0s0,0,0,0c0.8,0,1.6,0,2.4-0.1c0.1,0,0.2,0,0.2,0c4.3-0.3,8.5-1.1,12.7-2.6c0,0,0,0,0,0c0.8-0.3,1.6-0.6,2.3-0.9
	c0,0,0.1,0,0.1-0.1c0.7-0.3,1.4-0.6,2.1-1c0.2-0.1,0.5-0.2,0.7-0.4c0.4-0.2,0.8-0.5,1.3-0.7c0.5-0.3,1-0.6,1.4-0.8
	c0.3-0.2,0.6-0.4,1-0.6c0.4-0.2,0.8-0.5,1.1-0.8c0.1-0.1,0.2-0.1,0.2-0.2c0.1-0.1,0.2-0.2,0.3-0.2c0.5-0.3,1-0.7,1.4-1.1
	c0.2-0.1,0.3-0.3,0.5-0.4c0.4-0.4,0.9-0.7,1.3-1.1c0.6-0.5,1.2-1,1.7-1.6C314.5,550.4,314.7,550.3,314.8,550.1z M145.1,156.8
	c34.6-43,81.1-64.8,138.3-64.8c56.2,0,102.1,21,136.4,62.5c14.9,18,24.7,36.3,30.5,49.4l-167,237.2l-167-237.3
	C122,191.5,131.2,174.2,145.1,156.8z"/>
<path d="M285.7,265c0.7,0,1.5-0.1,2.2-0.2c0.7-0.1,1.5-0.2,2.2-0.3c0.7-0.1,1.4-0.2,2.2-0.4c0.7-0.1,1.4-0.3,2.1-0.5
	c0.7-0.2,1.4-0.4,2.1-0.6c0.7-0.2,1.4-0.4,2.1-0.7c0.7-0.2,1.4-0.5,2-0.8c0.7-0.3,1.3-0.6,2-0.9c0.7-0.3,1.3-0.6,1.9-1
	c0.6-0.3,1.3-0.7,1.9-1.1c0.6-0.4,1.2-0.8,1.8-1.2c0.6-0.4,1.2-0.8,1.8-1.2c0.6-0.4,1.2-0.9,1.7-1.3c0.6-0.5,1.1-0.9,1.7-1.4
	c0.5-0.5,1.1-1,1.6-1.5c0.5-0.5,1-1.1,1.5-1.6c0.5-0.5,1-1.1,1.4-1.7c0.5-0.6,0.9-1.1,1.3-1.7c0.4-0.6,0.9-1.2,1.3-1.8
	c0.4-0.6,0.8-1.2,1.2-1.8c0.4-0.6,0.7-1.3,1.1-1.9c0.3-0.6,0.7-1.3,1-2c0.3-0.7,0.6-1.3,0.9-2c0.3-0.7,0.5-1.4,0.8-2
	c0.3-0.7,0.5-1.4,0.7-2.1c0.2-0.7,0.4-1.4,0.6-2.1c0.2-0.7,0.3-1.4,0.5-2.1c0.1-0.7,0.3-1.4,0.4-2.2c0.1-0.7,0.2-1.5,0.3-2.2
	c0.1-0.7,0.1-1.5,0.2-2.2c0-0.7,0.1-1.5,0.1-2.2c0-0.7,0-1.5-0.1-2.2c0-0.7-0.1-1.5-0.2-2.2c-0.1-0.7-0.2-1.4-0.3-2.2
	c-0.1-0.7-0.2-1.4-0.4-2.2c-0.1-0.7-0.3-1.4-0.5-2.1c-0.2-0.7-0.4-1.4-0.6-2.1c-0.2-0.7-0.4-1.4-0.7-2.1c-0.2-0.7-0.5-1.4-0.8-2
	c-0.3-0.7-0.6-1.3-0.9-2c-0.3-0.7-0.6-1.3-1-1.9c-0.3-0.6-0.7-1.3-1.1-1.9c-0.4-0.6-0.8-1.2-1.2-1.8c-0.4-0.6-0.8-1.2-1.3-1.8
	c-0.4-0.6-0.9-1.2-1.3-1.7c-0.5-0.6-0.9-1.1-1.4-1.7c-0.5-0.5-1-1.1-1.5-1.6c-0.5-0.5-1.1-1-1.6-1.5c-0.5-0.5-1.1-1-1.7-1.4
	c-0.6-0.5-1.2-0.9-1.7-1.3c-0.6-0.4-1.2-0.8-1.8-1.2c-0.6-0.4-1.2-0.8-1.8-1.2c-0.6-0.4-1.3-0.7-1.9-1.1c-0.6-0.3-1.3-0.7-1.9-1
	c-0.7-0.3-1.3-0.6-2-0.9c-0.7-0.3-1.3-0.5-2-0.8c-0.7-0.2-1.4-0.5-2.1-0.7c-0.7-0.2-1.4-0.4-2.1-0.6c-0.7-0.2-1.4-0.3-2.1-0.5
	c-0.7-0.1-1.4-0.3-2.2-0.4c-0.7-0.1-1.4-0.2-2.2-0.3c-0.7-0.1-1.5-0.1-2.2-0.2c-1.5-0.1-2.9-0.1-4.4,0c-0.7,0-1.5,0.1-2.2,0.2
	c-0.7,0.1-1.5,0.2-2.2,0.3c-0.7,0.1-1.4,0.2-2.2,0.4c-0.7,0.1-1.4,0.3-2.1,0.5c-0.7,0.2-1.4,0.4-2.1,0.6c-0.7,0.2-1.4,0.4-2.1,0.7
	c-0.7,0.2-1.4,0.5-2,0.8c-0.7,0.3-1.3,0.6-2,0.9c-0.7,0.3-1.3,0.6-1.9,1c-0.6,0.3-1.3,0.7-1.9,1.1c-0.6,0.4-1.2,0.8-1.8,1.2
	c-0.6,0.4-1.2,0.8-1.8,1.2c-0.6,0.4-1.2,0.9-1.7,1.3c-0.6,0.5-1.1,0.9-1.7,1.4c-0.5,0.5-1.1,1-1.6,1.5c-0.5,0.5-1,1.1-1.5,1.6
	c-0.5,0.5-1,1.1-1.4,1.7s-0.9,1.1-1.3,1.7c-0.4,0.6-0.9,1.2-1.3,1.8c-0.4,0.6-0.8,1.2-1.2,1.8c-0.4,0.6-0.7,1.3-1.1,1.9
	c-0.3,0.6-0.7,1.3-1,1.9c-0.3,0.7-0.6,1.3-0.9,2c-0.3,0.7-0.5,1.3-0.8,2c-0.2,0.7-0.5,1.4-0.7,2.1c-0.2,0.7-0.4,1.4-0.6,2.1
	c-0.2,0.7-0.3,1.4-0.5,2.1c-0.1,0.7-0.3,1.4-0.4,2.2c-0.1,0.7-0.2,1.4-0.3,2.2c-0.1,0.7-0.1,1.5-0.2,2.2c0,0.7-0.1,1.5-0.1,2.2
	c0,0.7,0,1.5,0.1,2.2c0,0.7,0.1,1.5,0.2,2.2c0.1,0.7,0.2,1.4,0.3,2.2c0.1,0.7,0.2,1.4,0.4,2.2c0.1,0.7,0.3,1.4,0.5,2.1
	c0.2,0.7,0.4,1.4,0.6,2.1c0.2,0.7,0.4,1.4,0.7,2.1c0.2,0.7,0.5,1.4,0.8,2c0.3,0.7,0.6,1.3,0.9,2c0.3,0.7,0.6,1.3,1,2
	c0.3,0.6,0.7,1.3,1.1,1.9c0.4,0.6,0.8,1.2,1.2,1.8c0.4,0.6,0.8,1.2,1.3,1.8c0.4,0.6,0.9,1.2,1.3,1.7c0.5,0.6,0.9,1.1,1.4,1.7
	c0.5,0.5,1,1.1,1.5,1.6c0.5,0.5,1,1,1.6,1.5s1.1,1,1.7,1.4c0.6,0.5,1.2,0.9,1.7,1.3c0.6,0.4,1.2,0.8,1.8,1.2s1.2,0.8,1.8,1.2
	c0.6,0.4,1.3,0.7,1.9,1.1c0.6,0.3,1.3,0.7,1.9,1c0.7,0.3,1.3,0.6,2,0.9c0.7,0.3,1.3,0.5,2,0.8c0.7,0.2,1.4,0.5,2.1,0.7
	c0.7,0.2,1.4,0.4,2.1,0.6c0.7,0.2,1.4,0.3,2.1,0.5c0.7,0.2,1.4,0.3,2.2,0.4c0.7,0.1,1.4,0.2,2.2,0.3c0.7,0.1,1.5,0.1,2.2,0.2
	c0.7,0,1.5,0.1,2.2,0.1C284.2,265,284.9,265,285.7,265z"/>
</svg>
