<?xml version="1.0" encoding="utf-8"?>
<!-- Generator: Adobe Illustrator 23.0.4, SVG Export Plug-In . SVG Version: 6.00 Build 0)  -->
<svg version="1.1" id="logojohannalaurent" xmlns="http://www.w3.org/2000/svg" xmlns:xlink="http://www.w3.org/1999/xlink" x="0px"
	 y="0px" viewBox="0 0 750.8 651.9" style="enable-background:new 0 0 750.8 651.9;" xml:space="preserve">
<title>logojohannalaurent</title>
<path d="M492.3,130.7h-5.9c-1.1,0.2-10.9,2.7-26,8.9c-8.2-3.5-16.6-6.4-25.1-8.9h-5.8c-1.1,0.2-10.9,2.7-26.1,8.9
	c-15.1-6.3-24.7-8.8-25.2-8.9h-5.1l-0.6,0.2c-1.1,0.2-10.9,2.7-26.1,8.9c-8.1-3.5-16.5-6.5-25-8.9h-5.9c-1,0.2-10.8,2.7-26,8.9
	c-8.2-3.5-16.5-6.5-25.1-8.9h-5.8c-3.1,0.7-77.5,19.5-146.3,92.4C-1.9,344.1-8.9,517.3,5.5,641.4c0.7,6,5.8,10.5,11.8,10.5h1.4
	c6.5-0.8,11.2-6.7,10.5-13.3c-42.5-368.1,171.5-463.7,224-481.4c-31.1,17.6-59.5,39.8-84,65.9C55,344.1,48.1,517.3,62.4,641.4
	c0.8,6,5.9,10.5,11.9,10.5h1.4c6.5-0.8,11.2-6.7,10.4-13.2v-0.1C47.9,307.4,217.3,196.9,289.9,165.1l4.1,1.8
	c-24.8,15.9-47.6,34.7-67.8,56.2C112,344.1,105.1,517.3,119.4,641.4c0.7,6,5.8,10.5,11.8,10.5h1.4c6.5-0.7,11.2-6.6,10.5-13.1
	c0-0.1,0-0.1,0-0.2C109.3,345.5,238,225.2,318.4,179.4l8,4.7c-15.5,11.8-29.9,24.9-43.3,39C168.9,344.1,162,517.3,176.3,641.4
	c0.8,6,5.9,10.5,11.9,10.5h1.4c6.5-0.8,11.2-6.7,10.5-13.3C170,378.3,268.2,254.3,346.9,197.7c3.5,2.6,7.1,5.2,10.7,8.1
	c-5.9,5.4-11.7,11.1-17.5,17.3C225.9,344.1,219,517.3,233.3,641.4c0.8,6,5.8,10.4,11.8,10.5h1.4c6.5-0.7,11.2-6.6,10.5-13.1
	c0-0.1,0-0.1,0-0.2c-26.5-229.5,46.7-353.1,118.3-417.9c71.7,64.8,144.9,188.4,118.4,417.9c-0.8,6.5,3.8,12.5,10.3,13.3
	c0.1,0,0.1,0,0.2,0h1.3c6,0,11.1-4.5,11.9-10.5c27.1-234.8-49.2-365-125-435.1c3.8-3,7.7-5.9,11.4-8.6
	c78.7,56.6,176.9,180.6,146.8,440.9c-0.7,6.6,4,12.5,10.5,13.3h1.4c6,0,11.1-4.5,11.8-10.5c30.2-261.6-68-393.4-150.7-456.8
	c2.9-1.8,5.8-3.6,8.7-5.2c80.4,45.8,209.1,166.1,175.3,459.2c-0.8,6.5,3.8,12.5,10.3,13.3c0.1,0,0.1,0,0.2,0h1.3
	c6,0,11.1-4.5,11.9-10.5c33.3-288.2-89.3-418.9-175.4-474.1l4.9-2.2c72.6,31.8,242,142.3,203.7,473.5c-0.7,6.6,4,12.5,10.5,13.3h1.4
	c6,0,11.1-4.5,11.9-10.5C724,331.8,579.9,204,494.4,156.2c46.5,14.9,270.5,106.5,227.1,482.4c-0.8,6.5,3.8,12.5,10.3,13.3
	c0.1,0,0.1,0,0.2,0h1.4c6-0.1,11-4.5,11.8-10.5C794.5,214.6,502,133.2,492.3,130.7z M342,167.3l4.9-2.2l4,1.8l-4.7,3.1L342,167.3z
	 M374.7,190.9c-2.7-2.2-5.4-4.3-8.1-6.3l8.7-5.2l8,4.7L374.7,190.9z M403.1,170l-4.2-2.7l4.9-2.2l4.1,1.8L403.1,170z"/>
<path d="M383.7,446c-0.4-0.6-1-1.1-1.7-1.5c-0.7-0.5-1.4-0.9-2.2-1.1c-0.7-0.4-1.4-0.6-2.2-0.7c-3.9-0.8-7.9,0.5-10.7,3.3
	c-1.2,1.1-2.1,2.4-2.6,3.9c-0.6,1.4-0.9,3-0.9,4.5c0,3.2,1.3,6.2,3.5,8.5c2.3,2.2,5.3,3.4,8.5,3.4c0.7,0,1.5,0,2.2-0.2l2.2-0.6
	c0.8-0.3,1.5-0.7,2.2-1.2c0.7-0.3,1.3-0.8,1.7-1.4c2.3-2.2,3.5-5.3,3.5-8.5c0-1.5-0.2-3.1-0.8-4.5C385.8,448.4,384.9,447,383.7,446z
	"/>
<path d="M364.3,16.5c0.3,0.7,0.7,1.4,1.1,2.1c0.4,0.6,0.9,1.2,1.5,1.7c2.2,2.3,5.3,3.6,8.5,3.6l2.2-0.3c0.8-0.1,1.5-0.3,2.2-0.7
	c0.8-0.2,1.5-0.5,2.2-1c0.7-0.4,1.2-1,1.7-1.6c2.3-2.1,3.6-5.2,3.5-8.3c0-0.8,0-1.6-0.2-2.4c-0.1-0.8-0.3-1.5-0.6-2.2
	c-0.7-1.5-1.6-2.8-2.7-4c-0.5-0.5-1.1-1-1.7-1.4c-0.7-0.5-1.4-0.9-2.2-1.1l-2.2-0.7c-3.9-0.8-7.9,0.4-10.7,3.2
	c-2.2,2.3-3.5,5.4-3.5,8.6c0,0.7,0,1.5,0.2,2.2C363.8,15,364,15.7,364.3,16.5z"/>
</svg>
