<?xml version="1.0" encoding="utf-8"?>
<!-- Generator: Adobe Illustrator 23.0.4, SVG Export Plug-In . SVG Version: 6.00 Build 0)  -->
<svg version="1.1" id="logojohannalaurent" xmlns="http://www.w3.org/2000/svg" xmlns:xlink="http://www.w3.org/1999/xlink" x="0px"
	 y="0px" viewBox="0 0 566.9 566.9" style="enable-background:new 0 0 566.9 566.9;" xml:space="preserve">
<title>logojohannalaurent</title>
<g>
	<path d="M66.4,541.6c-10.5,0-21-4-29-12c-16-16-16-42,0-58l241.9-241.9c16-16,42-16,58,0c16,16,16,42,0,58L95.3,529.6
		C87.3,537.6,76.8,541.6,66.4,541.6z"/>
	<path d="M500.6,517.5c-22.6,0-41-18.4-41-41V107.4H76c-22.6,0-41-18.4-41-41s18.4-41,41-41h465.6v451.2
		C541.6,499.2,523.2,517.5,500.6,517.5z"/>
</g>
</svg>
