<?xml version="1.0" encoding="utf-8"?>
<!-- Generator: Adobe Illustrator 23.0.4, SVG Export Plug-In . SVG Version: 6.00 Build 0)  -->
<svg version="1.1" id="header-svg-bg" xmlns="http://www.w3.org/2000/svg" xmlns:xlink="http://www.w3.org/1999/xlink" x="0px" y="0px"
	 viewBox="0 0 183.2 403" style="enable-background:new 0 0 183.2 403;" xml:space="preserve">
<title>header-svg-bg</title>
<g>
	<g id="_37">
		<path d="M108.9,319.4c-2.3,0.2-4.6-0.5-6.4-1.9l0.2-0.2c2.5,2.2,6.8,2.4,12.4,0.5s11.4-5.1,17.8-9.7c19.3-14,36.5-36.7,30.5-51
			c-4.2-10.1-21.6-20-80.7-10.2c-13.1,2.3-26.4,3.8-39.7,4.6c-28.2,1.1-38.4-4.5-41.7-10.4s-0.2-15.2,8.8-25.2
			c8.6-9,18.6-16.6,29.6-22.3c11.5-5.9,21.2-8,26.5-5.8s10.5-1.4,13.6-5c11.4-13,19.4-47.4,7.1-68.1c-8.1-13.8-23.8-18.5-45.2-13.7
			v-0.3c27.2-6.1,39.8,4.2,45.6,13.9s7.4,22.3,5.4,36.7C90.8,164,86,176.2,80,183c-4.5,5.3-9.4,7-13.9,5.1
			c-11.6-5-40.8,11.6-55.8,28c-9,9.9-12.1,18.8-8.7,24.9c4.4,8,22,15.5,81.1,5.7c25-4.2,44.7-5.2,58.5-2.9
			c12.1,2,19.6,6.5,22.5,13.2c3.6,8.7-1.3,19-6,26.2c-6.7,9.7-15,18.2-24.6,25.1C125.2,314,115.7,319.1,108.9,319.4z"/>
		<path d="M110.9,321.2c-2.7,0.1-4.9-0.5-6.4-1.9l0.2-0.2c4.5,4.1,15.1,1.2,27.5-7.6c17.2-12.1,38.3-36.5,31.6-52.9
			c-4.2-10.4-21.5-20.7-79.5-11.3c-58,9.4-75.7,1.5-80.1-6.8c-3.6-6.8-0.1-16.5,10-27.3c15-16,42-31.3,53.2-26.2
			c4.2,1.8,8.6,0.4,12.8-4.3c11.4-12.7,19.4-48.4,6.8-70c-8.2-14-23.6-19-44.6-14.4v-0.2c26.7-5.9,39.2,4.6,45,14.5
			s7.6,23.2,5.6,38.1c-1.7,13.2-6.5,25.5-12.5,32.2c-4.3,4.7-8.8,6.2-13.1,4.3s-14-0.4-24.7,5.1c-10.5,5.5-20,12.6-28.2,21.1
			c-10,10.7-13.5,20.3-10,27s21.8,16,79.9,6.6s75.5,1,79.7,11.5c6.8,16.5-14.4,41.1-31.6,53.2c-5.9,4.2-11.5,7.2-16.3,8.6
			C114.5,320.8,112.7,321.1,110.9,321.2z"/>
		<path d="M112.9,323.1c-2.3,0.3-4.7-0.4-6.5-1.9l0.2-0.2c4.4,4,13.8,1.7,25.2-6.2c10.1-7,18.8-15.8,25.7-26
			c5.1-7.9,10.5-19.2,6.7-28.8s-21.3-21.3-78.3-12.3c-57,9-74.5,0.7-78.9-7.8c-2-3.9-1.9-8.6,0.4-14.1s5.9-10.2,11-15.5
			c7.8-8.1,16.9-14.8,26.9-19.9c10.2-5.1,18.5-6.6,23.3-4.3s8.1,0.6,12.1-3.6c11.5-12.6,19-49.7,6.4-71.8
			c-8.2-14.3-23.4-19.5-44-15.1v-0.2c26.2-5.7,38.6,5.1,44.3,15.2s7.9,24,6,39.4c-1.7,13.7-6.5,26.2-12.4,32.6
			c-4.1,4.4-8.3,5.7-12.4,3.8s-13-0.8-23.1,4.3c-9.9,5.1-19,11.8-26.8,19.8c-11,11.4-15.1,22.1-11.4,29.3s21.6,16.6,78.6,7.6
			s74.3,1.8,78.6,12.5c4.3,10.7-1.5,21.1-6.7,29c-6.9,10.2-15.6,19.1-25.8,26.1C124.5,320.2,117.9,322.9,112.9,323.1z"/>
		<path d="M114.9,325.2c-2.4,0.2-4.7-0.5-6.5-2.1l0.2-0.2c4,3.8,12.7,2,23.1-5c10.3-7,19.1-16,26-26.4c7.4-11.5,9.9-22.1,6.8-30
			c-4.2-10.8-21-22-77.1-13.5c-10.8,1.7-21.6,2.9-32.5,3.4c-30.7,1.3-41.7-5.4-45.1-12.1s0.6-19.6,12.8-32
			c7.5-7.5,16.1-13.7,25.5-18.5c9.4-4.6,17.1-5.8,21.7-3.6s7.7,0.8,11.3-3c5.9-6.2,10.6-18.8,12.2-32.9c1.8-15.6-0.4-30.4-6.1-40.6
			C78.9,94,63.9,88.6,43.7,92.9v-0.2c25.6-5.6,37.9,5.6,43.7,15.9s8,25.1,6.2,40.7c-1.6,14.1-6.3,26.8-12.3,33
			c-3.7,4-7.8,5.1-11.6,3.2c-9.9-4.9-32.7,7.6-46.9,22C10.6,219.8,6,231.3,10,239.2s21.4,17.1,77.3,8.6s73.2,2.7,77.5,13.6
			c3.1,7.9,0.6,18.7-6.9,30.3c-6.9,10.4-15.7,19.4-26,26.5C125.2,322.6,119.4,325,114.9,325.2z"/>
		<path d="M116.9,327.2c-2.4,0.3-4.8-0.5-6.6-2.2l0.2-0.2c3.9,3.8,11.6,2.4,21.3-3.8c10.4-7,19.3-16.1,26.1-26.7
			c7.6-11.9,10.1-23,7-31.2c-4.2-11.2-20.8-22.8-76-14.6c-55.2,8.2-72-0.9-76.4-9.8s1-21.4,14.3-34.4s34.6-24.9,44.2-19.9
			c3.5,1.8,7.2,0.9,10.6-2.6c5.9-6,10.5-18.7,12.1-33.3s-0.7-31.2-6.5-41.8c-8.3-15-23.1-20.7-42.8-16.5v-0.3
			c25.1-5.3,37.3,6.1,43.1,16.6s8.3,26,6.5,42.1S87.7,176,81.8,182c-3.5,3.6-7.3,4.5-10.9,2.6c-9.6-4.9-30.2,6.5-44,19.9
			s-18.4,25.6-14.2,34.1s21.2,17.7,76.2,9.6s72,3.5,76.3,14.8c3.1,8.3,0.6,19.4-7,31.5c-6.9,10.6-15.8,19.6-26.2,26.7
			C126.1,325,120.9,327,116.9,327.2z"/>
		<path d="M118.8,329.3c-2.4,0.2-4.8-0.6-6.5-2.3v-0.2c3.7,3.7,10.9,2.7,19.7-2.9s19.6-16.3,26.2-26.8c7.7-12.4,10.2-23.9,7-32.4
			c-4.2-11.5-20.6-23.5-74.9-15.8c-10.7,1.5-19.9,2.4-27.8,2.7C30,253,18.6,245.5,15,238.1c-2.4-4.9-1.9-11,1.4-18
			s7.9-12.6,14.4-18.8c6.6-6.3,14.2-11.6,22.5-15.6c8-3.6,14.6-4.4,18.7-2.2s6.8,1.1,10.1-2.1c5.7-5.7,10.3-18.9,11.8-33.6
			c1.6-16.5-0.9-32.2-6.8-43.2C79,89.3,64.3,83.3,44.9,87.4v-0.3c24.6-5.2,36.8,6.6,42.6,17.4s8.4,26.8,6.8,43.3s-6.1,28-11.9,33.8
			c-3.4,3.3-7,4.1-10.4,2.2c-8.8-4.9-27.8,5.2-40.9,17.7c-6.5,6.2-11.5,12.7-14.4,18.8S13,233.2,15.3,238c4.4,9.1,21,18.3,75,10.6
			s71.1,4.4,75.3,16c3.2,8.6,0.6,20.2-7.1,32.6c-6.6,10.6-16.7,20.9-26.2,26.9C127.1,327.4,122.5,329.1,118.8,329.3z"/>
		<path d="M120.8,331.5c-2.5,0.3-4.9-0.7-6.6-2.5h0.2c3.5,3.7,10,2.9,18.3-2.1s19.3-16.1,26-27c7.7-12.7,10.2-24.6,7.1-33.5
			c-4.2-11.8-20.5-24.3-74-16.9c-53.5,7.4-69.7-2.5-74.1-11.9c-2.5-5.3-1.9-12,1.7-19.4s8.7-13.5,15.5-19.8
			c12.5-11.6,29.7-20.7,38.3-15.7c3.2,1.8,6.4,1.2,9.5-1.8c11.5-11,17.9-53.1,4.5-78.4c-5.7-10.9-17.7-22.9-41.7-17.9v-0.3
			c24.2-5,36.3,7.1,42.1,18.1c13.4,25.4,6.9,67.6-4.6,78.7c-3.1,3.1-6.5,3.7-9.8,1.8c-8.5-4.9-25.6,4.2-38,15.7s-22.8,27-17.2,38.9
			c4.4,9.3,20.8,18.8,73.9,11.6s70,5.3,74.2,17.1c3.2,9,0.7,21-7.1,33.7c-6.7,11-16.7,21.3-26.1,27.1
			C128.2,329.8,124.1,331.3,120.8,331.5z"/>
		<path d="M122.7,333.7c-2.5,0.2-4.9-0.7-6.6-2.5l0.2-0.2c3.3,3.6,9.4,3.1,17-1.4c9.2-5.5,19.1-15.9,25.8-27.1
			c7.8-13,10.3-25.2,7.1-34.5c-4.2-12.1-20.2-25.1-72.9-18.2s-68.7-3.1-73.1-12.8c-2.6-5.6-1.9-12.8,2.1-20.8
			c4.2-7.8,9.8-14.9,16.5-20.7c11.3-10.1,27.2-18.7,35.5-13.7c3,1.8,6.1,1.4,9-1.4c5.6-5.2,10.1-18.7,11.3-34.3
			c1.4-17.3-1.3-34-7.4-45.7S69.6,76.8,46,81.7v-0.3c23.8-4.9,35.7,7.6,41.6,18.9s8.8,28.4,7.4,45.8c-1.3,15.7-5.8,29.2-11.4,34.5
			c-3,2.8-6.2,3.3-9.4,1.4c-7-4.2-21.4,1.4-35.1,13.7S14.5,224,20.5,236.9c4.3,9.6,20.5,19.5,72.8,12.7s68.9,6.1,73.2,18.3
			c3.2,9.4,0.7,21.7-7.1,34.8c-6.8,11.2-16.7,21.6-25.9,27.1C129.4,332.2,125.7,333.5,122.7,333.7z"/>
		<path d="M124.6,335.9c-2.5,0.2-4.9-0.7-6.6-2.6l0.2-0.2c3.2,3.7,8.8,3.4,15.9-0.7c9.1-5.3,18.9-15.6,25.6-27.2
			c7.7-13.2,10.2-25.8,7-35.4c-4.2-12.5-20.1-26-72-19.5s-67.6-3.9-72-13.8c-5.9-13.2,5.7-31.5,19.9-43.8
			c10.7-9.3,25-16.6,32.7-11.8c2.9,1.9,5.8,1.5,8.6-1c5.5-5.1,9.9-18.7,11-34.7c1.3-17.7-1.5-34.8-7.7-46.9S69.6,74.1,46.4,78.7
			v-0.2c23.3-4.7,35.2,8.1,41.1,19.6s8.9,29.4,7.7,47.2c-1.2,16-5.5,29.7-11.1,34.8c-2.8,2.6-5.9,2.9-8.9,1
			c-7.6-4.7-21.8,2.5-32.5,11.8c-14,12.2-25.6,30.4-19.8,43.5c4.4,9.8,20.4,20.1,71.8,13.7s68,7,72.2,19.6c3.3,9.7,0.8,22.3-7,35.7
			c-6.7,11.5-16.5,22-25.6,27.2C131.4,334.5,128.1,335.6,124.6,335.9z"/>
		<path d="M126.5,338.3c-2.5,0.2-5-0.8-6.6-2.8h0.2c3,3.5,8.4,3.5,15-0.3c8.7-4.9,18.6-15.5,25.1-27.1c7.7-13.6,10.2-26.5,6.9-36.4
			c-4.1-12.8-19.8-26.8-71-20.7c-7,0.8-13.3,1.3-19,1.6c-35.9,1.4-48.2-7.8-52-16.6c-6.1-14.2,6.6-33.7,21-45.8
			c12.1-10.2,24-14.2,30.2-10.1c2.8,1.9,5.6,1.6,8.2-0.7c5.5-4.8,9.7-18.6,10.7-34.9c1.1-18.2-1.8-35.8-8-48.3S69.6,71.3,46.9,75.8
			v-0.3C69.7,71,81.6,84.1,87.5,96s9.1,30.1,7.9,48.4c-1,16.4-5.2,30.2-10.7,35.1c-2.3,2.3-5.9,2.6-8.5,0.8
			c-6.1-4.1-17.9-0.1-29.9,10c-14.4,12.1-27,31.5-20.9,45.5c4.3,10.1,20.1,20.8,70.7,14.8s67.1,8,71.3,20.9c3.3,10,0.8,23-6.9,36.6
			c-6.7,11.8-16.4,22.3-25.3,27.3C132.5,337,129.6,338,126.5,338.3z"/>
		<path d="M128.4,340.6c-2.6,0.2-5.1-0.8-6.7-2.8l0.2-0.2c3.8,4.6,9.8,2.7,14.2,0.3c17.5-9.5,38.6-42.2,31.5-64.5
			c-4.1-13.2-19.7-27.7-70.1-22c-6.1,0.7-11.8,1.2-16.9,1.4c-36.7,1.5-49.3-8.3-53.1-17.4c-2.9-6.8-1.8-15.5,3-24.9
			c4.7-8.8,11.1-16.6,18.9-22.9c11.4-9.2,22-12.5,27.9-8.5c2.7,1.9,5.3,1.7,7.8-0.4c5.4-4.6,9.5-18.5,10.4-35.3
			c0.9-18.5-2.1-36.6-8.3-49.4S69.6,68.4,47.3,72.8v-0.3c22.5-4.4,34.3,9.2,40.2,21.4s9.3,30.9,8.3,49.6c-0.9,16.8-5,30.7-10.4,35.4
			c-2.6,2.2-5.3,2.4-8.1,0.5c-5.8-4-16.4-0.7-27.6,8.4c-7.7,6.3-14.1,14-18.9,22.8c-3.3,6.6-6.6,16.1-3,24.7
			c4.4,10.3,20,21.5,69.8,15.9s66.2,8.9,70.4,22.1c7.1,22.4-14.1,55.3-31.7,64.8C133.9,339.6,131.2,340.4,128.4,340.6z"/>
		<path d="M130.3,343.1c-2.6,0.2-5.1-0.9-6.7-2.9l0.2-0.2c3.7,4.5,9.3,2.9,13.4,0.7c8.4-4.4,17.9-15.1,24.3-27.2
			c4.4-8.1,11-23.9,6.6-38.2s-19.5-28.6-69.2-23.3c-5.4,0.6-10.3,0.9-14.9,1.1c-37.5,1.6-50.3-8.7-54.2-18.3s-0.3-19.2,3.3-26.1
			c4.8-9.1,11.4-17,19.4-23.4c10.6-8.4,20.2-11,25.8-7.1c2.6,1.9,5.1,1.8,7.4-0.1c5.3-4.5,9.3-18.5,10-35.6
			c0.8-19-2.3-37.5-8.6-50.7S69.6,65.5,47.6,69.7v-0.3c22.2-4.2,33.9,9.8,39.9,22.3s9.4,31.8,8.6,50.8c-0.8,17.2-4.7,31.3-10.1,35.8
			c-2.2,2-5.5,2.1-7.8,0.2c-5.4-3.9-14.9-1.3-25.4,7c-8,6.3-14.6,14.3-19.4,23.3c-3.5,6.8-6.9,16.9-3.2,25.9
			c4.3,10.7,19.8,22.2,68.8,17s65.3,9.9,69.5,23.6s-2.3,30.2-6.6,38.4c-6.5,12.1-16.1,22.8-24.4,27.2
			C135.3,342.2,132.8,342.9,130.3,343.1z"/>
		<path d="M132.2,345.6c-2.6,0.2-5.1-0.9-6.7-3l0.2-0.2c3.5,4.5,8.9,3.1,12.7,1.1c8.2-4.2,17.5-14.9,23.9-27.2
			c4.2-8.2,10.7-24.2,6.3-39s-19.3-29.6-68.3-24.7c-4.7,0.5-9,0.8-13,0.9c-38.3,1.6-51.3-9.2-55.2-19.2s-0.2-20.2,3.4-27.4
			c4.8-9.3,11.6-17.4,19.9-23.8c9.7-7.4,18.6-9.6,23.8-5.7c2.5,1.8,4.9,1.8,7.1,0c5.3-4.3,9.1-18.3,9.7-35.9
			c0.6-19.3-2.6-38.2-8.9-51.9s-17.6-27.1-39.2-23v-0.3c21.8-4.1,33.5,10.4,39.4,23.2s9.6,32.6,8.9,52c-0.6,17.6-4.4,31.8-9.7,36.1
			c-2.3,1.9-4.8,1.9-7.5,0c-5-3.8-13.8-1.7-23.5,5.7c-8.2,6.4-14.9,14.5-19.7,23.7c-3.7,7.2-7.2,17.7-3.5,27.2s19.6,22.9,67.9,18.1
			s64.5,10.9,68.7,25s-2.1,30.9-6.4,39.2c-6.4,12.3-15.8,23-23.9,27.2C136.6,344.8,134.5,345.5,132.2,345.6z"/>
		<path d="M134,348.2c-2.6,0.2-5.2-1-6.7-3.2h0.2c3.5,4.5,8.5,3.2,12.2,1.4c7.9-4,17.1-14.6,23.3-27.1c4.2-8.4,10.5-24.7,6.2-39.8
			s-19.2-30.6-67.6-26.2c-3.9,0.4-7.6,0.6-11,0.8c-39.2,1.6-52.3-9.8-56.3-20.3s-0.2-21.1,3.6-28.5c4.9-9.4,11.7-17.7,20.1-24.2
			c9.1-6.8,17.2-8.5,22.1-4.7c2.4,1.9,4.7,2,6.9,0.3c5.1-4.1,8.8-18.3,9.2-36.1c0.5-19.8-2.8-39.1-9.2-53.2s-17.5-27.9-38.8-24v-0.3
			c21.5-3.9,33.2,11,39.2,24.2s9.7,33.5,9.2,53.3c-0.5,17.9-4.1,32.2-9.4,36.3c-2.2,1.8-4.6,1.7-7.1-0.2c-4.9-3.8-12.8-2.1-21.8,4.6
			c-8.4,6.4-15.2,14.6-20,24c-3.8,7.4-7.5,18.3-3.6,28.4s19.4,23.7,67,19.3s63.7,11.8,67.8,26.3s-2,31.6-6.2,40
			c-6.2,12.6-15.4,23.2-23.4,27.2C138.1,347.5,136.1,348.1,134,348.2z"/>
		<path d="M135.9,350.9c-2.7,0.1-5.2-1.1-6.7-3.3l0.2-0.2c2.6,3.6,6.6,4.2,11.6,1.7c15.8-7.6,35.7-42.4,28.7-67.6
			c-4-14.8-19-31.7-66.8-27.6l-9.1,0.6c-40,1.6-53.3-10.4-57.3-21.3c-3.1-8.3-1.7-18.8,3.7-29.7s12.3-18.6,20.3-24.3
			s15.9-7.4,20.5-3.7c2.3,1.9,4.5,2.1,6.6,0.5c5.1-3.9,8.5-18.2,8.8-36.4c0.4-20.1-3.1-39.9-9.5-54.3S69.4,56.4,48.4,60.2v-0.3
			c21.1-3.8,32.8,11.6,38.8,25.2s9.9,34.3,9.5,54.5c-0.3,18.3-3.8,32.7-9,36.6c-2.1,1.7-4.4,1.5-6.9-0.4c-4.5-3.7-11.9-2.4-20.2,3.6
			c-8.5,6.4-15.4,14.7-20.1,24.2c-5.5,10.9-6.8,21.3-3.7,29.5c4.2,11.6,19.2,24.5,66.1,20.5s63,12.9,67.1,27.9
			c7,25.3-13.1,60.2-28.9,67.9C139.5,350.2,137.7,350.7,135.9,350.9z"/>
		<path d="M137.7,353.6c-2.7,0.1-5.2-1.2-6.7-3.5h0.2c2.6,3.6,6.5,4.3,11.2,2c7.5-3.5,16.2-14.1,22.2-26.9
			c6.7-14.6,8.8-29.7,5.7-41.3c-4-15.4-18.8-32.9-66.1-29.2l-7.3,0.4c-40.7,1.7-54.2-11-58.3-22.4c-3-8.6-1.7-19.5,3.8-30.7
			s12.4-19,20.3-24.5s14.8-6.4,19.2-2.8c2.2,1.9,4.3,2.1,6.3,0.7c10.1-7.6,13-59.1-1.3-92.2c-6.1-14-17.6-29.9-38.3-26.2v-0.3
			C69.4,52.9,81,68.9,87.1,83s10,35.1,9.8,55.6c-0.1,18.6-3.5,33.1-8.6,36.9c-2,1.5-4.2,1.3-6.6-0.7c-4.3-3.6-11.1-2.5-18.8,2.8
			S47.5,192.2,42.7,202s-6.9,22-3.8,30.5c4.2,11.9,19,25.4,65.3,21.8s62.3,13.9,66.4,29.4c3.1,11.7,1,26.8-5.8,41.5
			c-5.9,12.8-14.7,23.5-22.3,27.1C141,353,139.4,353.5,137.7,353.6z"/>
		<path d="M139.6,356.4c-2.7,0.1-5.3-1.3-6.7-3.6l0.2-0.2c2.5,3.6,6.2,4.4,10.7,2.4c7.3-3.4,15.8-14,21.6-26.9
			c6.6-14.8,8.6-30.1,5.5-42c-4-15.9-18.7-34.1-65.4-30.8l-5.5,0.3c-41.5,1.7-55.2-11.7-59.3-23.6c-3.1-8.9-1.7-20.2,3.8-31.7
			S57,181,64.8,175.7s13.7-5.7,17.9-2c2.2,1.9,4.2,2.2,6.1,0.8c4.9-3.5,8.1-18,8.1-36.9c0-20.8-3.7-41.5-10.1-56.7
			s-17.6-30.8-38-27.3v-0.3c20.6-3.5,32.2,13,38.3,27.5s10.2,36,10.2,56.8c-0.1,19-3.3,33.6-8.2,37.2c-2,1.4-4.2,1.1-6.5-0.9
			c-4.1-3.6-10.3-2.9-17.5,2s-15.4,14.4-20.2,24.5s-6.9,22.7-3.8,31.5c4.2,12.3,18.8,26.3,64.5,23.1s61.6,15,65.7,31
			c3.1,12,1,27.4-5.5,42.2c-5.9,13-14.4,23.6-21.8,27C142.6,355.9,141.1,356.3,139.6,356.4z"/>
		<path d="M141.4,359.2c-2.7,0.1-4.9-1.1-6.7-3.7h0.2c2.5,3.6,6.1,4.5,10.4,2.6c14.6-6.6,32.8-42.7,26.3-69.5
			c-4.1-16.4-18.6-35.4-64.8-32.5S47,244.2,42.7,231.4c-6.9-20.9,9.6-47.9,24-57.3c6.8-4.5,12.8-4.9,16.8-1.3c2.1,1.9,4.1,2.2,5.9,1
			c4.8-3.4,7.8-18,7.7-37.2c-0.2-21.1-4-42.2-10.4-57.9S69,46.8,48.9,50.2v-0.3C69.2,46.5,80.8,63.7,87,78.6s10.2,36.8,10.4,58
			c0.1,19.3-3,33.9-7.8,37.4c-1.9,1.3-4,1-6.3-1c-3.9-3.6-9.7-3.1-16.4,1.3c-14.4,9.4-30.8,36.2-23.9,57
			c4.2,12.7,18.7,27.2,63.8,24.4s61,16.2,65,32.7c3,12.3,1.1,27.9-5.3,42.8c-5.6,13.2-13.9,23.8-21.1,27
			C144.1,358.8,142.8,359.1,141.4,359.2z"/>
		<path d="M143.3,362.1c-2.7,0.1-5-1.2-6.8-3.8l0.3-0.2c2.4,3.7,5.8,4.7,9.9,2.9c7-3,15-13.5,20.4-26.7c6.2-15,8.1-30.8,5.1-43.3
			c-3.9-16.8-18-36.2-62.4-34.3H106c-43.2,1.8-57.2-13.1-61.3-26c-3-9.6-1.7-21.6,3.8-33.6c4.9-10.5,12.5-19.9,20-24.7
			s12-4.2,15.8-0.7c2.1,2,4,2.3,5.7,1.2c4.7-3.2,7.6-17.9,7.3-37.4c-0.4-21.4-4.2-42.9-10.7-59S68.9,43.5,49,46.7v-0.2
			c20.1-3.3,31.8,14.5,38,30s10.3,37.6,10.6,59.1c0.3,19.6-2.6,34.3-7.3,37.6c-1.9,1.3-3.9,0.9-6.1-1.2s-9.2-3.2-15.5,0.8
			s-15,14.1-19.8,24.5c-5.5,12-6.9,23.8-3.8,33.4c4.1,13.1,18.5,28.1,63.1,25.8c19.4-1.1,34.9,1.9,46,8.7s15.7,14.5,18.4,25.7
			c6.5,27.7-11.3,64.1-25.7,70.3C145.8,361.8,144.6,362.1,143.3,362.1z"/>
		<path d="M145.1,365.1c-2.7,0.1-4.9-1.2-6.7-3.9l0.2-0.2c2.4,3.7,5.7,4.7,9.7,3.1c6.7-2.9,14.5-13.3,19.7-26.6
			c6-15.1,7.8-31.1,4.9-43.9c-4-17.5-18.1-38-63.2-36.1h-0.9c-43.9,1.9-58-13.8-62.1-27.4c-3.1-9.9-1.7-22.1,3.7-34.4
			c4.8-10.7,12.4-20.1,19.7-24.6s11.3-3.8,15-0.2c2,1.9,3.8,2.4,5.5,1.3c4.6-3.1,7.3-17.9,6.8-37.6C97,112.9,93,91,86.5,74.5
			S68.7,40.1,49,43.2V43c19.9-3.2,31.5,15.3,37.8,31.4s10.4,38.4,10.9,60.2c0.5,19.8-2.3,34.7-7,37.8c-1.7,1.2-3.7,0.7-5.8-1.3
			c-3.6-3.5-8.8-3.4-14.6,0.2s-14.8,13.9-19.6,24.5c-5.5,12.2-6.8,24.4-3.8,34.2c4.1,13.5,18.2,29.1,61.9,27.3h0.9
			c19.1-0.8,34.4,2.5,45.3,9.6s15.5,15.2,18.1,26.7s1.2,29-4.8,44.1c-5.3,13.4-13.1,23.9-19.9,26.7
			C147.4,364.8,146.2,365.1,145.1,365.1z"/>
		<path d="M146.9,368.2c-2.6,0.1-4.9-1.3-6.7-4.1l0.2-0.2c2.4,3.7,5.6,4.9,9.4,3.3c6.6-2.7,14.1-13,19.2-26.5
			c5.7-15.1,7.4-31.3,4.6-44.4c-3.9-18.2-18-39.6-63-38s-57.9-14.8-62.1-28.9c-6.6-22.8,9.2-51.5,23.2-59.8
			c5.6-3.3,10.6-3.2,14.1,0.3s3.8,2.5,5.4,1.5c4.5-3,7-17.8,6.4-37.8C97,112,92.8,89.1,86.5,72.4S68.5,36.7,49,39.7v-0.3
			c19.7-3,31.4,16.2,37.7,32.9s10.5,39.6,11.2,61.3c0.6,20.1-2,35-6.6,38c-1.7,1.1-3.6,0.6-5.7-1.5c-4.3-4.4-9.9-2.5-13.8-0.2
			c-13.9,8.2-29.6,36.8-23,59.4c4.1,14,18.1,30.3,61.7,28.8c19.2-0.7,34.5,2.8,45.4,10.4c9.3,6.5,15.4,15.8,17.9,27.8
			s1.2,29.4-4.6,44.5c-5.1,13.5-12.7,24-19.3,26.7C148.9,367.9,147.9,368.1,146.9,368.2z"/>
		<path d="M148.8,371.3c-2.7,0.1-5-1.3-6.8-4.2l0.3-0.2c2.3,3.8,5.4,5,9.1,3.5c6.3-2.5,13.6-12.8,18.5-26.3
			c5.5-15.1,7.1-31.5,4.4-44.9c-3.9-18.9-17.9-41.2-62.5-40s-57.4-16-61.4-30.5c-3-10.6-1.7-23.3,3.7-35.9s11.9-20.5,19-24.6
			c5.4-3,10-2.8,13.5,0.8c1.9,2,3.6,2.5,5.1,1.5c4.4-2.7,6.8-17.6,6.1-37.9s-5.1-45.1-11.4-62.2S68.3,33.2,49,36v-0.2
			C68.5,32.9,80.2,53,86.6,70.3s10.6,40.4,11.4,62.3c0.8,20.3-1.6,35.3-6.1,38.2c-1.7,1-3.5,0.5-5.5-1.6c-4.3-4.4-9.5-2.8-13.2-0.7
			c-7,4-14.2,13.3-18.9,24.4s-6.6,25.2-3.7,35.7c4.1,14.4,18,31.4,61.2,30.3c19-0.5,34.1,3.3,45,11.3c9.2,6.8,15.2,16.6,17.8,29
			c6,29.7-10,66.3-23.1,71.5C150.6,371.1,149.7,371.3,148.8,371.3z"/>
		<path d="M150.6,374.5c-2.6,0.1-4.9-1.4-6.7-4.4h0.2c2.3,3.8,5.4,5.1,8.9,3.7c12.5-4.8,27.9-41.3,22-71.5
			c-3.8-19.6-17.6-42.9-62-42.2c-18.2,0.3-32.7-2.7-43.2-9s-15-13.2-17.6-23.1s-1.7-23.9,3.6-36.6s11.7-20.6,18.6-24.4
			c5.1-2.8,9.5-2.5,12.9,1.1c1.8,2,3.5,2.6,5,1.7c4.3-2.7,6.5-17.6,5.6-38.1S92.6,86,86.3,68.5S68.1,29.6,48.9,32.4v-0.3
			c19.4-2.8,31.2,18.2,37.7,36.3s10.7,41.2,11.6,63.2s-1.4,35.6-5.8,38.3c-1.6,1-3.4,0.4-5.3-1.7s-7.6-3.8-12.5-1.1
			c-13.2,7.3-28.6,36.6-22.2,60.7c4,15,17.8,32.7,60.6,32c18.9-0.3,34,3.8,44.7,12.2s15.1,17.3,17.6,30.2
			c5.9,30.3-9.6,66.9-22.2,71.8C152.3,374.3,151.5,374.5,150.6,374.5z"/>
		<path d="M152.4,377.8c-2.6,0.1-4.9-1.4-6.7-4.5l0.3-0.2c2.2,3.9,5.2,5.2,8.6,4c12.1-4.6,26.9-40.9,21.2-71.7
			c-3.7-20.4-17.5-44.7-61.6-44.5c-18,0.1-32.5-3.2-42.9-9.8c-8.7-5.4-14.9-14-17.4-24c-2.8-11.2-1.6-24.4,3.5-37.3
			s11.6-20.7,18.3-24.3c4.8-2.6,9-2,12.2,1.5s3.5,2.7,4.9,1.8c4.2-2.5,6.3-17.4,5.3-38.1s-5.5-46.2-11.8-64.1S67.9,26,48.8,28.6
			v-0.3C68,25.7,79.9,47.6,86.5,66.5s10.8,42,11.8,64.2s-1,35.8-5.3,38.3c-1.6,1-3.3,0.3-5.3-1.8s-7.2-3.9-11.9-1.4
			c-12.9,6.9-28,36.3-21.6,61.2c3.9,15.5,17.5,33.9,60,33.6c18.8-0.1,33.8,4.4,44.5,13.3c9.1,7.5,14.9,18.1,17.4,31.5
			c5.7,30.8-9.2,67.4-21.4,71.9C154,377.6,153.2,377.7,152.4,377.8z"/>
		<path d="M154.3,381.1c-2.6,0.1-4.9-1.4-6.7-4.6l0.2-0.2c2.2,3.9,5.1,5.3,8.4,4.2c5.8-2.1,12.3-12.2,16.7-25.7
			c4.8-15.2,6.2-31.9,3.7-46c-3.6-21.3-17.3-46.8-61.2-47c-17.9,0-32.2-3.6-42.6-10.6c-8.7-5.9-14.8-14.9-17.2-25.1
			c-2.8-11.4-1.5-24.8,3.5-37.8c4.4-11.5,11.2-20.7,17.7-24.1c4.6-2.4,8.7-1.7,11.8,1.8s3.4,2.7,4.8,1.9c4.1-2.3,6-17.3,4.8-38.1
			c-1.2-22.3-5.7-46.6-11.9-65s-18.7-42.5-37.6-40v-0.3C67.8,22,79.8,45,86.5,64.7s10.8,42.8,12,65.1s-0.7,35.9-5,38.4
			c-1.5,0.8-3.2,0.2-5.1-2s-7-4.1-11.4-1.8c-6.5,3.4-13.3,12.6-17.7,24c-5,12.9-6.2,26.3-3.4,37.7c3.9,16.1,17.3,35.3,59.5,35.5
			c18.7,0,33.6,4.8,44.3,14.2c9,8,14.8,19.1,17.2,32.9s1.1,31-3.8,46.2c-4.3,13.6-10.9,23.7-16.8,25.8
			C155.7,381,155,381.1,154.3,381.1z"/>
		<path d="M156.1,384.6c-2.6,0.1-4.8-1.6-6.7-4.8l0.2-0.2c2.3,4,5.1,5.5,8.3,4.3c5.5-1.9,11.8-11.9,16-25.4s5.9-31.9,3.6-46.2
			c-3-18.2-14.8-48.8-60.9-49.5c-17.8-0.3-32.1-4.2-42.3-11.5c-8.7-6.3-14.8-15.6-17-26.1c-2.7-11.7-1.5-25.3,3.3-38.4
			c4.3-11.5,11-20.7,17.3-23.9c4.4-2.2,8.3-1.4,11.3,2.1s3.4,2.8,4.7,2c4-2.2,5.7-17.1,4.5-38s-5.9-47-12.1-65.8
			c-6.8-20.6-18.9-44.7-37.8-42.3v-0.3c19-2.4,31.2,21.8,38,42.5c6.2,18.8,10.8,43.4,12.1,65.9s-0.4,36-4.6,38.3
			c-1.4,0.8-3.1,0.1-5-2.1s-6.7-4.2-10.9-2.1c-6.3,3.2-12.9,12.3-17.2,23.8c-4.8,13-6,26.6-3.4,38.2c3.8,16.7,17.2,36.8,59.1,37.4
			c18.7,0.3,33.5,5.5,44.1,15.4c9,8.4,14.7,20,17.1,34.4s1,31.2-3.7,46.3s-10.4,23.6-16.1,25.6L156.1,384.6z"/>
		<path d="M157.9,388.1c-2.5,0.1-4.8-1.6-6.6-5h0.2c2.2,4,5,5.5,8,4.5c10.7-3.6,23.9-38.5,18.9-71.4c-2.9-19-14.6-51.1-60.6-52.3
			c-17.8-0.5-31.9-4.7-42.1-12.5C67,244.7,61,235,58.9,224.2c-2.6-11.9-1.5-25.7,3.2-38.8s10.7-20.8,16.9-23.8
			c4.1-2,7.9-1.2,10.9,2.4s3.2,2.8,4.5,2.1c3.9-2.1,5.5-17,4.1-37.9s-6.1-47.3-12.2-66.5c-4.6-14.3-9.9-25.5-15.9-33.1
			S56.2,16,48.3,16.9v-0.3c8-0.9,15.5,3,22.3,11.8S82,47.3,86.5,61.6c13.6,42.2,16.4,100.2,8,104.8c-1.4,0.8-3,0-4.9-2.2
			s-6.5-4.3-10.5-2.4c-6.1,3-12.5,12.1-16.7,23.6c-4.7,13-5.8,26.7-3.3,38.6c3.8,17.4,17,38.4,58.7,39.5c18.6,0.5,33.4,6,44,16.5
			c8.9,8.9,14.6,21,16.8,36s1,31.5-3.4,46.5s-10,23.4-15.6,25.3C159.1,388,158.5,388.1,157.9,388.1z"/>
		<path d="M159.8,391.7c-2.5,0.1-4.8-1.7-6.7-5.1l0.2-0.2c2.2,4.1,5,5.7,7.9,4.7c5.3-1.7,10.9-11.2,14.8-24.6s5.4-31.8,3.3-46.4
			c-2.8-19.9-14.4-53.6-60.4-55.3c-17.6-0.7-31.7-5.2-41.8-13.4s-14.3-16.6-16.7-28.5s-1.3-26.2,3.2-39.1s10.3-20.7,16.4-23.5
			c3.9-1.8,7.6-0.9,10.5,2.7s3.2,2.9,4.4,2.2c8-4.2,4.7-62.2-8.5-104.8c-4.7-15.1-10.1-26.8-16.1-34.9S55.9,12,48.1,12.9v-0.3
			c8-0.9,15.6,3.4,22.5,12.7s11.4,19.9,16.1,35C92.8,79.9,97.4,105,99,127.4s0,36-3.9,38.1c-1.3,0.7-3-0.1-4.8-2.3
			s-6.3-4.4-10.1-2.6c-6,2.7-12.2,11.7-16.2,23.3s-5.6,27-3.2,39c3.6,18.1,16.7,40,58.2,41.6c18.7,0.7,33.5,6.7,44,17.8
			c8.8,9.4,14.4,22.1,16.7,37.7c2,15.6,0.8,31.4-3.4,46.5c-3.8,13.6-9.5,23.1-14.9,24.9C160.9,391.6,160.3,391.7,159.8,391.7z"/>
		<path d="M161.6,395.4c-2.5,0.1-4.7-1.7-6.6-5.3h0.2c2.2,4.1,4.8,5.8,7.7,4.8c5.1-1.6,10.5-10.9,14.1-24.2
			c4-15.1,5.1-30.8,3.2-46.3c-2.7-20.9-14.1-56.2-60.1-58.5c-17.6-0.9-31.7-5.7-41.7-14.4S64.2,234,61.9,221.7
			c-2.3-13.2-1.2-26.8,3.2-39.5c3.9-11.7,10-20.5,15.8-23.2c3.8-1.7,7.3-0.7,10.1,2.9s3.2,3,4.4,2.4c3.7-1.9,5-16.3,3.4-37.5
			c-1.8-22.9-5.9-45.5-12.3-67.5C81.7,43.4,76.2,31,70.2,22.4S55.7,7.9,47.8,8.8V8.5c8-0.9,15.7,3.8,22.7,13.7s11.5,21.1,16.3,37
			c13.3,44.1,16.6,101.3,8.8,105.3c-1.3,0.7-2.9-0.1-4.7-2.4s-6.1-4.5-9.8-2.8c-5.8,2.6-11.8,11.4-15.7,23s-5.4,27.1-3.1,39.3
			c2.9,15.5,14.3,41.8,57.9,43.9c18.7,1,33.4,7.4,43.9,19.2c8.7,9.8,14.4,23.5,16.5,39.6c1.9,15.5,0.8,31.3-3.2,46.4
			c-3.7,13.4-9.1,22.8-14.3,24.4L161.6,395.4z"/>
		<path d="M163.5,399.1c-2.5,0.1-4.8-1.7-6.7-5.4h0.3c2.2,4.2,4.7,5.9,7.6,5c4.8-1.5,10-10.6,13.4-23.7c3.8-15,4.9-30.7,3.1-46.1
			c-2.6-21.9-13.9-59.1-60-61.9c-17.6-1.1-31.6-6.3-41.6-15.5c-8.5-7.9-14-18.3-16.2-31.1c-2.1-13.3-1.1-26.9,3.1-39.7
			c3.7-11.6,9.6-20.4,15.3-22.9c3.6-1.6,7-0.5,9.8,3.2c1.7,2.2,3.1,3,4.3,2.5c3.5-1.8,4.7-16,3-37.1c-1.9-23-6.1-45.7-12.3-67.9
			C81.8,41.7,76.2,28.6,70,19.4S55.4,3.8,47.4,4.6V4.3c8.1-0.8,15.7,4.2,22.9,14.9S82,41.6,86.9,58.4c6.2,22.2,10.4,44.9,12.3,67.9
			c1.6,21.2,0.4,35.5-3.2,37.3c-1.3,0.7-2.9-0.2-4.6-2.5s-6-4.6-9.5-3.1c-5.6,2.4-11.4,11.1-15.2,22.7c-4.1,12.7-5.1,26.3-3.1,39.5
			c2.9,16.2,14.1,43.7,57.6,46.4c46.4,2.9,57.7,40.2,60.3,62.2c1.7,15.5,0.7,31.1-3.1,46.2c-3.5,13.2-8.7,22.4-13.7,23.9
			L163.5,399.1z"/>
		<path d="M165.3,403c-2.4,0.1-4.7-1.8-6.6-5.6h0.2c2.2,4.2,4.8,6,7.5,5.2c4.6-1.4,9.5-10.3,12.8-23.1c3.7-14.9,4.7-30.4,3-45.7
			c-2.4-23.1-13.5-62.3-59.8-65.7c-17.6-1.4-31.6-7-41.6-16.7c-8.5-8.3-13.9-19.2-16-32.6c-2-13.3-1-26.9,3-39.7
			c3.7-11.6,9.3-20.3,14.8-22.5c3.5-1.5,6.8-0.4,9.5,3.3s3.1,3.2,4.2,2.6c7.1-3.4,3.3-59.1-9.4-104.5C80.6,35.6,67-1.6,47.1,0.3V0.1
			C55.2-0.7,63,4.7,70.3,16.2c6.2,9.9,11.9,23.9,16.9,41.7c6.1,22.2,10.2,44.9,12.2,67.9c1.8,21.3,0.7,35.1-2.9,36.8
			c-1.2,0.7-2.8-0.2-4.5-2.6s-5.8-4.7-9.2-3.3c-5.4,2.3-11,10.8-14.6,22.4c-4,12.8-5.1,26.3-3.2,39.6c2.8,16.9,13.9,45.7,57.4,49
			c18.8,1.4,33.6,8.9,44.1,22.2c8.6,11,14.1,26.2,16,43.8c3.5,32.1-6.1,66.1-16,69.1L165.3,403z"/>
	</g>
</g>
</svg>
