<svg id="Glyphs_vecto_pour_svg" data-name="Glyphs vecto pour svg" xmlns="http://www.w3.org/2000/svg" viewBox="0 0 1080 1080"><title>Plan de travail 1 copie 9</title><path d="M159.8,216.8A31.5,31.5,0,1,0,105.1,248L512.6,963.1a31.6,31.6,0,0,0,54.8,0L974.9,248a31.6,31.6,0,0,0-4.3-37.1,34.3,34.3,0,0,0-7.5-5.9,31.5,31.5,0,0,0-42.9,11.8L640,708.5l-51.5-90.3L799.5,248a31.5,31.5,0,1,0-54.7-31.2L552.3,554.6,359.7,216.8a28.6,28.6,0,0,0-7-8.4l-2.4-1.9A31.5,31.5,0,0,0,305,248L603.7,772.1,540,883.9Z"/></svg>