<svg viewBox="0 0 406.4 274.3" id="union">
                <title>Glyph union</title>
                <g>
                    <g>
                        <desc>Glyph union</desc>
                        <path d="M269.3,0c-23.1,0-45.9,5.8-66.1,17C183,5.8,160.2,0,137.1,0C61.5,0,0,61.5,0,137.1s61.5,137.2,137.1,137.2
			c23.1,0,45.9-5.8,66.1-17c20.2,11.2,43,17,66.1,17c75.6,0,137.1-61.5,137.1-137.2S344.9,0,269.3,0z M137.1,264.3
			C67,264.3,10,207.2,10,137.1C10.1,66.9,66.9,10.1,137.1,10c19.5,0,38.7,4.4,56.1,13.1c-63,41.9-80.1,127-38.1,190
			c10.1,15.1,23,28.1,38.1,38.1C175.8,259.9,156.6,264.3,137.1,264.3z M203.2,28.6c60,36.4,79,114.5,42.6,174.5
			c-10.6,17.4-25.2,32-42.6,42.6c-60-36.4-79-114.5-42.6-174.5C171.2,53.8,185.8,39.2,203.2,28.6z M269.3,264.3
			c-19.5,0-38.7-4.5-56.1-13.1c63-41.9,80.1-127,38.1-190c-10.1-15.1-23-28.1-38.1-38.1c17.4-8.6,36.6-13.1,56.1-13.1
			c70.2,0.1,127,56.9,127.1,127.1C396.4,207.2,339.4,264.3,269.3,264.3z" />
                    </g>
                </g>
            </svg>